<mxfile host="Electron" modified="2024-05-20T01:13:57.232Z" agent="Mozilla/5.0 (Windows NT 10.0; Win64; x64) AppleWebKit/537.36 (KHTML, like Gecko) draw.io/24.2.5 Chrome/120.0.6099.109 Electron/28.1.0 Safari/537.36" etag="u7zCFISdzNL61W9oY5MD" version="24.2.5" type="device">
  <diagram name="Trang-1" id="NHPcXrkCQ3So3wAab3TF">
    <mxGraphModel dx="1050" dy="629" grid="1" gridSize="10" guides="1" tooltips="1" connect="1" arrows="1" fold="1" page="1" pageScale="1" pageWidth="827" pageHeight="1169" math="0" shadow="0">
      <root>
        <mxCell id="0" />
        <mxCell id="1" parent="0" />
        <mxCell id="Un78DVfuLtsYsKL6DgLx-10" style="edgeStyle=orthogonalEdgeStyle;rounded=0;orthogonalLoop=1;jettySize=auto;html=1;exitX=0;exitY=0;exitDx=0;exitDy=0;entryX=1;entryY=0.75;entryDx=0;entryDy=0;curved=1;" parent="1" source="_1pJe0qzJafNQNhFzSlD-1" target="_1pJe0qzJafNQNhFzSlD-3" edge="1">
          <mxGeometry relative="1" as="geometry" />
        </mxCell>
        <mxCell id="Un78DVfuLtsYsKL6DgLx-11" value="Booking ID" style="edgeLabel;html=1;align=center;verticalAlign=middle;resizable=0;points=[];" parent="Un78DVfuLtsYsKL6DgLx-10" vertex="1" connectable="0">
          <mxGeometry x="-0.0343" y="-8" relative="1" as="geometry">
            <mxPoint as="offset" />
          </mxGeometry>
        </mxCell>
        <mxCell id="Un78DVfuLtsYsKL6DgLx-14" style="edgeStyle=orthogonalEdgeStyle;rounded=0;orthogonalLoop=1;jettySize=auto;html=1;exitX=0.5;exitY=1;exitDx=0;exitDy=0;entryX=0.75;entryY=0;entryDx=0;entryDy=0;curved=1;" parent="1" source="_1pJe0qzJafNQNhFzSlD-1" target="_1pJe0qzJafNQNhFzSlD-7" edge="1">
          <mxGeometry relative="1" as="geometry" />
        </mxCell>
        <mxCell id="Un78DVfuLtsYsKL6DgLx-15" value="Payment&amp;nbsp;&lt;div&gt;request&lt;/div&gt;" style="edgeLabel;html=1;align=center;verticalAlign=middle;resizable=0;points=[];" parent="Un78DVfuLtsYsKL6DgLx-14" vertex="1" connectable="0">
          <mxGeometry x="-0.345" y="7" relative="1" as="geometry">
            <mxPoint x="-77" y="-2" as="offset" />
          </mxGeometry>
        </mxCell>
        <mxCell id="Un78DVfuLtsYsKL6DgLx-26" style="edgeStyle=orthogonalEdgeStyle;rounded=0;orthogonalLoop=1;jettySize=auto;html=1;exitX=0;exitY=0.5;exitDx=0;exitDy=0;entryX=0.75;entryY=1;entryDx=0;entryDy=0;curved=1;" parent="1" source="_1pJe0qzJafNQNhFzSlD-1" target="_1pJe0qzJafNQNhFzSlD-3" edge="1">
          <mxGeometry relative="1" as="geometry">
            <Array as="points">
              <mxPoint x="340" y="290" />
              <mxPoint x="160" y="290" />
            </Array>
          </mxGeometry>
        </mxCell>
        <mxCell id="Un78DVfuLtsYsKL6DgLx-27" value="Checkin confirmation" style="edgeLabel;html=1;align=center;verticalAlign=middle;resizable=0;points=[];" parent="Un78DVfuLtsYsKL6DgLx-26" vertex="1" connectable="0">
          <mxGeometry x="0.0167" y="-3" relative="1" as="geometry">
            <mxPoint as="offset" />
          </mxGeometry>
        </mxCell>
        <mxCell id="_1pJe0qzJafNQNhFzSlD-1" value="Badminton Court Booking System" style="ellipse;whiteSpace=wrap;html=1;" parent="1" vertex="1">
          <mxGeometry x="340" y="240" width="200" height="200" as="geometry" />
        </mxCell>
        <mxCell id="_1pJe0qzJafNQNhFzSlD-8" style="edgeStyle=orthogonalEdgeStyle;rounded=0;orthogonalLoop=1;jettySize=auto;html=1;curved=1;exitX=0.827;exitY=1.05;exitDx=0;exitDy=0;exitPerimeter=0;" parent="1" source="_1pJe0qzJafNQNhFzSlD-2" target="_1pJe0qzJafNQNhFzSlD-1" edge="1">
          <mxGeometry relative="1" as="geometry">
            <Array as="points">
              <mxPoint x="479" y="110" />
              <mxPoint x="510" y="110" />
            </Array>
            <mxPoint x="470" y="110" as="sourcePoint" />
            <mxPoint x="470" y="240" as="targetPoint" />
          </mxGeometry>
        </mxCell>
        <mxCell id="Un78DVfuLtsYsKL6DgLx-1" value="Location,&lt;div&gt;Avaibility,&lt;/div&gt;&lt;div&gt;Playable hour&lt;/div&gt;" style="edgeLabel;html=1;align=center;verticalAlign=middle;resizable=0;points=[];" parent="_1pJe0qzJafNQNhFzSlD-8" vertex="1" connectable="0">
          <mxGeometry x="0.0667" y="2" relative="1" as="geometry">
            <mxPoint as="offset" />
          </mxGeometry>
        </mxCell>
        <mxCell id="Un78DVfuLtsYsKL6DgLx-2" style="edgeStyle=orthogonalEdgeStyle;rounded=0;orthogonalLoop=1;jettySize=auto;html=1;exitX=0.5;exitY=1;exitDx=0;exitDy=0;" parent="1" source="_1pJe0qzJafNQNhFzSlD-2" target="_1pJe0qzJafNQNhFzSlD-1" edge="1">
          <mxGeometry relative="1" as="geometry">
            <Array as="points">
              <mxPoint x="460" y="110" />
            </Array>
          </mxGeometry>
        </mxCell>
        <mxCell id="Un78DVfuLtsYsKL6DgLx-3" value="Registration&lt;div&gt;&amp;nbsp;request&lt;br&gt;&lt;/div&gt;" style="edgeLabel;html=1;align=center;verticalAlign=middle;resizable=0;points=[];" parent="Un78DVfuLtsYsKL6DgLx-2" vertex="1" connectable="0">
          <mxGeometry x="-0.0769" y="-1" relative="1" as="geometry">
            <mxPoint x="1" y="-10" as="offset" />
          </mxGeometry>
        </mxCell>
        <mxCell id="_1pJe0qzJafNQNhFzSlD-2" value="Guest" style="rounded=0;whiteSpace=wrap;html=1;fillColor=#dae8fc;strokeColor=#6c8ebf;" parent="1" vertex="1">
          <mxGeometry x="380" y="20" width="120" height="60" as="geometry" />
        </mxCell>
        <mxCell id="_1pJe0qzJafNQNhFzSlD-3" value="Customer" style="rounded=0;whiteSpace=wrap;html=1;fillColor=#dae8fc;strokeColor=#6c8ebf;" parent="1" vertex="1">
          <mxGeometry x="70" y="140" width="120" height="60" as="geometry" />
        </mxCell>
        <mxCell id="_1pJe0qzJafNQNhFzSlD-4" value="System Admin" style="rounded=0;whiteSpace=wrap;html=1;fillColor=#dae8fc;strokeColor=#6c8ebf;" parent="1" vertex="1">
          <mxGeometry x="720" y="150" width="120" height="60" as="geometry" />
        </mxCell>
        <mxCell id="Un78DVfuLtsYsKL6DgLx-24" style="edgeStyle=orthogonalEdgeStyle;rounded=0;orthogonalLoop=1;jettySize=auto;html=1;exitX=1;exitY=0.5;exitDx=0;exitDy=0;curved=1;entryX=0.005;entryY=0.666;entryDx=0;entryDy=0;entryPerimeter=0;" parent="1" source="_1pJe0qzJafNQNhFzSlD-5" target="_1pJe0qzJafNQNhFzSlD-1" edge="1">
          <mxGeometry relative="1" as="geometry">
            <Array as="points">
              <mxPoint x="300" y="460" />
              <mxPoint x="300" y="380" />
              <mxPoint x="341" y="380" />
            </Array>
          </mxGeometry>
        </mxCell>
        <mxCell id="Un78DVfuLtsYsKL6DgLx-25" value="Booking ID" style="edgeLabel;html=1;align=center;verticalAlign=middle;resizable=0;points=[];" parent="Un78DVfuLtsYsKL6DgLx-24" vertex="1" connectable="0">
          <mxGeometry x="0.1314" y="2" relative="1" as="geometry">
            <mxPoint as="offset" />
          </mxGeometry>
        </mxCell>
        <mxCell id="_1pJe0qzJafNQNhFzSlD-5" value="Court Staff" style="rounded=0;whiteSpace=wrap;html=1;fillColor=#dae8fc;strokeColor=#6c8ebf;" parent="1" vertex="1">
          <mxGeometry x="80" y="430" width="120" height="60" as="geometry" />
        </mxCell>
        <mxCell id="7CtgX5wFynWXxVQC7CMQ-1" style="edgeStyle=orthogonalEdgeStyle;rounded=0;orthogonalLoop=1;jettySize=auto;html=1;exitX=0;exitY=0.5;exitDx=0;exitDy=0;curved=1;" parent="1" source="_1pJe0qzJafNQNhFzSlD-6" target="_1pJe0qzJafNQNhFzSlD-1" edge="1">
          <mxGeometry relative="1" as="geometry">
            <Array as="points">
              <mxPoint x="720" y="490" />
              <mxPoint x="610" y="490" />
              <mxPoint x="610" y="410" />
            </Array>
          </mxGeometry>
        </mxCell>
        <mxCell id="7CtgX5wFynWXxVQC7CMQ-2" value="Scheduled&amp;nbsp;&lt;div&gt;content&lt;/div&gt;" style="edgeLabel;html=1;align=center;verticalAlign=middle;resizable=0;points=[];" parent="7CtgX5wFynWXxVQC7CMQ-1" vertex="1" connectable="0">
          <mxGeometry x="0.1307" y="1" relative="1" as="geometry">
            <mxPoint as="offset" />
          </mxGeometry>
        </mxCell>
        <mxCell id="_1pJe0qzJafNQNhFzSlD-6" value="Court Manager" style="rounded=0;whiteSpace=wrap;html=1;fillColor=#dae8fc;strokeColor=#6c8ebf;" parent="1" vertex="1">
          <mxGeometry x="720" y="430" width="120" height="60" as="geometry" />
        </mxCell>
        <mxCell id="_1pJe0qzJafNQNhFzSlD-7" value="Payment Service Provider (External)" style="rounded=0;whiteSpace=wrap;html=1;fillColor=#dae8fc;strokeColor=#6c8ebf;" parent="1" vertex="1">
          <mxGeometry x="220" y="610" width="120" height="60" as="geometry" />
        </mxCell>
        <mxCell id="Un78DVfuLtsYsKL6DgLx-4" style="edgeStyle=orthogonalEdgeStyle;rounded=0;orthogonalLoop=1;jettySize=auto;html=1;exitX=1;exitY=0.5;exitDx=0;exitDy=0;entryX=0.173;entryY=0.09;entryDx=0;entryDy=0;entryPerimeter=0;curved=1;" parent="1" source="_1pJe0qzJafNQNhFzSlD-3" target="_1pJe0qzJafNQNhFzSlD-1" edge="1">
          <mxGeometry relative="1" as="geometry" />
        </mxCell>
        <mxCell id="Un78DVfuLtsYsKL6DgLx-5" value="Booking request" style="edgeLabel;html=1;align=center;verticalAlign=middle;resizable=0;points=[];" parent="Un78DVfuLtsYsKL6DgLx-4" vertex="1" connectable="0">
          <mxGeometry x="-0.0101" y="-32" relative="1" as="geometry">
            <mxPoint x="-27" y="-12" as="offset" />
          </mxGeometry>
        </mxCell>
        <mxCell id="Un78DVfuLtsYsKL6DgLx-12" style="edgeStyle=orthogonalEdgeStyle;rounded=0;orthogonalLoop=1;jettySize=auto;html=1;exitX=0.5;exitY=1;exitDx=0;exitDy=0;entryX=0.001;entryY=0.575;entryDx=0;entryDy=0;entryPerimeter=0;curved=1;" parent="1" source="_1pJe0qzJafNQNhFzSlD-3" target="_1pJe0qzJafNQNhFzSlD-1" edge="1">
          <mxGeometry relative="1" as="geometry" />
        </mxCell>
        <mxCell id="Un78DVfuLtsYsKL6DgLx-13" value="Payment request" style="edgeLabel;html=1;align=center;verticalAlign=middle;resizable=0;points=[];" parent="Un78DVfuLtsYsKL6DgLx-12" vertex="1" connectable="0">
          <mxGeometry x="0.1717" y="36" relative="1" as="geometry">
            <mxPoint as="offset" />
          </mxGeometry>
        </mxCell>
        <mxCell id="Un78DVfuLtsYsKL6DgLx-16" style="edgeStyle=orthogonalEdgeStyle;rounded=0;orthogonalLoop=1;jettySize=auto;html=1;exitX=0.5;exitY=0;exitDx=0;exitDy=0;entryX=0.302;entryY=0.967;entryDx=0;entryDy=0;entryPerimeter=0;curved=1;" parent="1" edge="1">
          <mxGeometry relative="1" as="geometry">
            <mxPoint x="280" y="606.6" as="sourcePoint" />
            <mxPoint x="400.4000000000001" y="430.0000000000001" as="targetPoint" />
            <Array as="points">
              <mxPoint x="280" y="476.6" />
              <mxPoint x="400" y="476.6" />
            </Array>
          </mxGeometry>
        </mxCell>
        <mxCell id="Un78DVfuLtsYsKL6DgLx-17" value="Payment&lt;div&gt;&amp;nbsp;confirmation&lt;/div&gt;" style="edgeLabel;html=1;align=center;verticalAlign=middle;resizable=0;points=[];" parent="Un78DVfuLtsYsKL6DgLx-16" vertex="1" connectable="0">
          <mxGeometry x="-0.3435" y="6" relative="1" as="geometry">
            <mxPoint x="46" y="-19" as="offset" />
          </mxGeometry>
        </mxCell>
        <mxCell id="Un78DVfuLtsYsKL6DgLx-18" style="edgeStyle=orthogonalEdgeStyle;rounded=0;orthogonalLoop=1;jettySize=auto;html=1;exitX=0;exitY=0.25;exitDx=0;exitDy=0;entryX=1;entryY=0.65;entryDx=0;entryDy=0;entryPerimeter=0;curved=1;startArrow=classic;startFill=1;" parent="1" source="_1pJe0qzJafNQNhFzSlD-6" target="_1pJe0qzJafNQNhFzSlD-1" edge="1">
          <mxGeometry relative="1" as="geometry">
            <Array as="points">
              <mxPoint x="720" y="450" />
              <mxPoint x="630" y="450" />
              <mxPoint x="630" y="370" />
            </Array>
          </mxGeometry>
        </mxCell>
        <mxCell id="Un78DVfuLtsYsKL6DgLx-19" value="Yard content" style="edgeLabel;html=1;align=center;verticalAlign=middle;resizable=0;points=[];" parent="Un78DVfuLtsYsKL6DgLx-18" vertex="1" connectable="0">
          <mxGeometry x="0.0638" y="1" relative="1" as="geometry">
            <mxPoint as="offset" />
          </mxGeometry>
        </mxCell>
        <mxCell id="Un78DVfuLtsYsKL6DgLx-20" style="edgeStyle=orthogonalEdgeStyle;rounded=0;orthogonalLoop=1;jettySize=auto;html=1;exitX=0.5;exitY=1;exitDx=0;exitDy=0;entryX=1;entryY=0.6;entryDx=0;entryDy=0;entryPerimeter=0;curved=1;startArrow=classic;startFill=1;" parent="1" source="_1pJe0qzJafNQNhFzSlD-4" target="_1pJe0qzJafNQNhFzSlD-1" edge="1">
          <mxGeometry relative="1" as="geometry" />
        </mxCell>
        <mxCell id="Un78DVfuLtsYsKL6DgLx-21" value="Badminton yard content" style="edgeLabel;html=1;align=center;verticalAlign=middle;resizable=0;points=[];" parent="Un78DVfuLtsYsKL6DgLx-20" vertex="1" connectable="0">
          <mxGeometry x="-0.4747" y="-47" relative="1" as="geometry">
            <mxPoint as="offset" />
          </mxGeometry>
        </mxCell>
        <mxCell id="Un78DVfuLtsYsKL6DgLx-28" style="edgeStyle=orthogonalEdgeStyle;rounded=0;orthogonalLoop=1;jettySize=auto;html=1;exitX=1;exitY=0.5;exitDx=0;exitDy=0;entryX=0.007;entryY=0.599;entryDx=0;entryDy=0;entryPerimeter=0;curved=1;" parent="1" source="_1pJe0qzJafNQNhFzSlD-1" target="_1pJe0qzJafNQNhFzSlD-4" edge="1">
          <mxGeometry relative="1" as="geometry" />
        </mxCell>
        <mxCell id="Un78DVfuLtsYsKL6DgLx-29" value="Registration request" style="edgeLabel;html=1;align=center;verticalAlign=middle;resizable=0;points=[];" parent="Un78DVfuLtsYsKL6DgLx-28" vertex="1" connectable="0">
          <mxGeometry x="0.0387" y="-1" relative="1" as="geometry">
            <mxPoint as="offset" />
          </mxGeometry>
        </mxCell>
        <mxCell id="Un78DVfuLtsYsKL6DgLx-30" style="edgeStyle=orthogonalEdgeStyle;rounded=0;orthogonalLoop=1;jettySize=auto;html=1;entryX=1;entryY=0.35;entryDx=0;entryDy=0;entryPerimeter=0;curved=1;" parent="1" source="_1pJe0qzJafNQNhFzSlD-4" target="_1pJe0qzJafNQNhFzSlD-1" edge="1">
          <mxGeometry relative="1" as="geometry">
            <Array as="points">
              <mxPoint x="580" y="180" />
              <mxPoint x="580" y="310" />
            </Array>
          </mxGeometry>
        </mxCell>
        <mxCell id="Un78DVfuLtsYsKL6DgLx-31" value="Registration&lt;div&gt;confirmation&lt;/div&gt;" style="edgeLabel;html=1;align=center;verticalAlign=middle;resizable=0;points=[];" parent="Un78DVfuLtsYsKL6DgLx-30" vertex="1" connectable="0">
          <mxGeometry x="0.0869" y="19" relative="1" as="geometry">
            <mxPoint as="offset" />
          </mxGeometry>
        </mxCell>
        <mxCell id="Un78DVfuLtsYsKL6DgLx-32" style="edgeStyle=orthogonalEdgeStyle;rounded=0;orthogonalLoop=1;jettySize=auto;html=1;exitX=0.5;exitY=0;exitDx=0;exitDy=0;entryX=0.25;entryY=1;entryDx=0;entryDy=0;curved=1;" parent="1" target="_1pJe0qzJafNQNhFzSlD-2" edge="1">
          <mxGeometry relative="1" as="geometry">
            <mxPoint x="429" y="240" as="sourcePoint" />
            <mxPoint x="414.8399999999999" y="113.96000000000004" as="targetPoint" />
            <Array as="points">
              <mxPoint x="410" y="240" />
              <mxPoint x="410" y="180" />
              <mxPoint x="399" y="180" />
              <mxPoint x="399" y="114" />
              <mxPoint x="410" y="114" />
            </Array>
          </mxGeometry>
        </mxCell>
        <mxCell id="Un78DVfuLtsYsKL6DgLx-33" value="List of&lt;div&gt;available&lt;/div&gt;&lt;div&gt;court&lt;/div&gt;" style="edgeLabel;html=1;align=center;verticalAlign=middle;resizable=0;points=[];" parent="Un78DVfuLtsYsKL6DgLx-32" vertex="1" connectable="0">
          <mxGeometry x="-0.0302" relative="1" as="geometry">
            <mxPoint x="4" as="offset" />
          </mxGeometry>
        </mxCell>
      </root>
    </mxGraphModel>
  </diagram>
</mxfile>
